HIERARCHY
ROOT Bip001_Pelvis
{
  OFFSET 1.9202 94.1302 -9.65566
  CHANNELS 6 Xposition Yposition Zposition Zrotation Xrotation Yrotation
  JOINT Bip001_Spine
  {
    OFFSET 1.44608e-005 10.4157 -0.0118244
    CHANNELS 3 Zrotation Xrotation Yrotation
    JOINT Bip001_L_Thigh
    {
      OFFSET 11.2582 -10.4157 0.0118432
      CHANNELS 3 Zrotation Xrotation Yrotation
      JOINT Bip001_L_Calf
      {
        OFFSET -0.720717 -44.8687 0.366937
        CHANNELS 3 Zrotation Xrotation Yrotation
        JOINT Bip001_L_Foot
        {
          OFFSET -0.664439 -41.3745 -3.62995
          CHANNELS 3 Zrotation Xrotation Yrotation
          JOINT Bip001_L_Toe0
          {
            OFFSET 0.0541047 -10.4146 13.4033
            CHANNELS 3 Zrotation Xrotation Yrotation
            End Site
            {
              OFFSET -1.04503e-005 0 7.70137
            }
          }
        }
      }
    }
    JOINT Bip001_R_Thigh
    {
      OFFSET -11.2582 -10.4156 0.0118122
      CHANNELS 3 Zrotation Xrotation Yrotation
      JOINT Bip001_R_Calf
      {
        OFFSET 0.72059 -44.8687 0.36676
        CHANNELS 3 Zrotation Xrotation Yrotation
        JOINT Bip001_R_Foot
        {
          OFFSET 0.664321 -41.3745 -3.62979
          CHANNELS 3 Zrotation Xrotation Yrotation
          JOINT Bip001_R_Toe0
          {
            OFFSET -0.05417 -10.4146 13.4033
            CHANNELS 3 Zrotation Xrotation Yrotation
            End Site
            {
              OFFSET -1.04873e-005 0 7.70137
            }
          }
        }
      }
    }
    JOINT Bip001_Spine1
    {
      OFFSET 1.90638e-005 14.8539 1.10727
      CHANNELS 3 Zrotation Xrotation Yrotation
      JOINT Bip001_Spine2
      {
        OFFSET 2.28934e-005 14.7848 -1.7233
        CHANNELS 3 Zrotation Xrotation Yrotation
        JOINT Bip001_Neck
        {
          OFFSET 2.24514e-005 15.6905 -0.498826
          CHANNELS 3 Zrotation Xrotation Yrotation
          JOINT Bip001_L_Clavicle
          {
            OFFSET 6.17691 -0.000591152 0.00852867
            CHANNELS 3 Zrotation Xrotation Yrotation
            JOINT Bip001_L_UpperArm
            {
              OFFSET 11.773 -0.0611878 0.00197697
              CHANNELS 3 Zrotation Xrotation Yrotation
              JOINT Bip001_L_Forearm
              {
                OFFSET 26.4515 0.0817569 -2.19579
                CHANNELS 3 Zrotation Xrotation Yrotation
                JOINT Bip001_L_Hand
                {
                  OFFSET 32.8677 0.156744 1.67112
                  CHANNELS 3 Zrotation Xrotation Yrotation
                  JOINT Bip001_L_Finger0
                  {
                    OFFSET 6.16267 -2.25226 6.01673
                    CHANNELS 3 Zrotation Xrotation Yrotation
                    End Site
                    {
                      OFFSET 4.30498 -1.46663 0.618147
                    }
                  }
                  JOINT Bip001_L_Finger1
                  {
                    OFFSET 11.2957 -0.718375 -0.201963
                    CHANNELS 3 Zrotation Xrotation Yrotation
                    End Site
                    {
                      OFFSET 6.31952 -0.405163 -0.0802302
                    }
                  }
                }
              }
            }
          }
          JOINT Bip001_R_Clavicle
          {
            OFFSET -6.17691 -0.000574027 0.00851165
            CHANNELS 3 Zrotation Xrotation Yrotation
            JOINT Bip001_R_UpperArm
            {
              OFFSET -11.773 -0.0611516 0.00194365
              CHANNELS 3 Zrotation Xrotation Yrotation
              JOINT Bip001_R_Forearm
              {
                OFFSET -26.4514 0.0822335 -2.19736
                CHANNELS 3 Zrotation Xrotation Yrotation
                JOINT Bip001_R_Hand
                {
                  OFFSET -32.8677 0.156816 1.67144
                  CHANNELS 3 Zrotation Xrotation Yrotation
                  JOINT Bip001_R_Finger0
                  {
                    OFFSET -6.1627 -2.25224 6.01673
                    CHANNELS 3 Zrotation Xrotation Yrotation
                    End Site
                    {
                      OFFSET -4.30499 -1.46661 0.618137
                    }
                  }
                  JOINT Bip001_R_Finger1
                  {
                    OFFSET -11.2958 -0.718342 -0.201995
                    CHANNELS 3 Zrotation Xrotation Yrotation
                    End Site
                    {
                      OFFSET -6.31952 -0.405145 -0.080248
                    }
                  }
                }
              }
            }
          }
          JOINT Bip001_Head
          {
            OFFSET 1.11782e-005 11.4912 2.09908
            CHANNELS 3 Zrotation Xrotation Yrotation
            End Site
            {
              OFFSET 2.95144e-005 21.2823 -2.83069e-005
            }
          }
        }
      }
    }
  }
}
MOTION
Frames:	5
Frame Time:	0.0333333
1.81992 94.0722 -8.48395 -2.48242 -6.49608 6.08965 -0.371933 3.33669 0.697575 5.68675 -6.38602 -6.40415 -0.195167 21.7373 -3.05973 -1.09389 -10.0426 1.71494 1.0666e-007 -2.12739e-007 3.17382e-008 4.08619 -6.1399 6.52174 -0.105219 15.2469 -2.57399 -1.04518 -4.02326 -6.09902 5.73253e-007 -1.15634e-007 -1.13028e-006 1.61167 6.66642 1.02267 1.6077 6.66842 1.01691 5.34011 1.17335 8.98794 -32.3774 7.6217 -15.7782 -36.8152 57.5931 -10.9887 -2.32804 0.562634 -23.7148 10.4181 15.763 -0.634875 -3.18055e-015 0 -1.19271e-015 0 0 -2.38542e-015 18.4693 -4.01976 -11.7189 32.2926 46.3655 24.7071 1.86729 0.162021 13.4815 -7.94689 7.88396 -2.89748 -3.18055e-015 6.36111e-015 7.95139e-016 -3.18055e-015 6.36111e-015 7.95139e-016 -11.5556 29.0285 17.6691 
1.80232 94.0733 -8.51073 -2.47566 -6.49545 6.14207 -0.371933 3.33669 0.697575 5.68539 -6.38587 -6.41643 -0.193745 21.7329 -3.06414 -1.10127 -10.0257 1.67544 1.0666e-007 -2.12739e-007 3.17382e-008 4.07929 -6.14068 6.45721 -0.106134 15.2273 -2.57374 -1.05072 -3.99328 -6.12118 5.73253e-007 -1.15634e-007 -1.13028e-006 1.61167 6.66642 1.02267 1.6077 6.66842 1.01691 5.32004 1.1976 8.96183 -32.334 7.58046 -15.7767 -36.5895 57.434 -11.2355 -2.32762 0.56245 -23.7576 10.7373 16.1602 -0.673871 7.95139e-015 6.36111e-015 3.97569e-016 4.77083e-015 7.95139e-015 7.95139e-016 18.4403 -4.02392 -11.6884 32.2585 46.4634 24.8179 1.86767 0.162112 13.3466 -8.03591 7.74069 -2.93058 -3.18055e-015 0 2.38542e-015 -3.18055e-015 -3.18056e-015 3.18055e-015 -11.5574 29.0443 17.6206 
1.78252 94.0764 -8.53826 -2.46702 -6.50595 6.19761 -0.371933 3.33669 0.697575 5.67317 -6.39136 -6.51936 -0.194514 21.7101 -3.07243 -1.11158 -10.019 1.73837 1.0666e-007 -2.12739e-007 3.17382e-008 4.07216 -6.14147 6.39057 -0.104777 15.2126 -2.58133 -1.06252 -3.99843 -6.09753 5.73253e-007 -1.15634e-007 -1.13028e-006 1.61167 6.66642 1.02267 1.6077 6.66842 1.01691 5.31115 1.25074 8.92323 -32.3003 7.50937 -15.774 -36.3451 57.3526 -11.5174 -2.32751 0.562404 -23.7682 10.6139 16.4558 -0.707437 3.18055e-015 0 1.59028e-015 3.18055e-015 1.59028e-015 1.98785e-015 18.4038 -4.05602 -11.6309 32.2032 46.5979 24.9395 1.86904 0.158176 13.1963 -8.11256 7.55921 -2.93719 -1.76556e-031 -6.36111e-015 -1.59028e-015 -1.32417e-031 -3.18056e-015 -2.38542e-015 -11.556 28.972 17.5518 
1.7615 94.0795 -8.56654 -2.459 -6.51788 6.26141 -0.371933 3.33669 0.697575 5.66065 -6.4026 -6.61884 -0.195243 21.686 -3.07981 -1.11882 -9.99637 1.80868 1.0666e-007 -2.12739e-007 3.17382e-008 4.06477 -6.14229 6.32147 -0.105204 15.208 -2.58991 -1.06889 -4.01538 -6.03815 5.73253e-007 -1.15634e-007 -1.13028e-006 1.6116 6.66981 1.02268 1.60764 6.67181 1.01692 5.30236 1.32733 8.87423 -32.2716 7.41349 -15.7705 -36.0536 57.424 -11.8402 -2.32768 0.562476 -23.7515 10.4511 16.6642 -0.728528 -1.59028e-015 -1.59028e-015 -3.97569e-016 -1.59028e-015 -3.18056e-015 -3.97569e-016 18.3756 -4.10813 -11.5563 32.1158 46.7589 25.0744 1.85391 0.150275 13.0411 -8.17491 7.36543 -2.93598 -3.18055e-015 -3.18055e-015 2.38542e-015 1.76556e-031 -3.18056e-015 3.18055e-015 -11.5706 28.8289 17.4761 
1.73922 94.0798 -8.59478 -2.44924 -6.53789 6.33002 -0.371933 3.33669 0.697575 5.68464 -6.41682 -6.59353 -0.194312 21.6854 -3.08891 -1.12694 -9.96438 1.75198 1.0666e-007 -2.12739e-007 3.17382e-008 4.05673 -6.13421 6.25538 -0.106703 15.2086 -2.60006 -1.07229 -4.0318 -5.99912 5.73253e-007 -1.15634e-007 -1.13028e-006 1.61133 6.68485 1.02271 1.60737 6.68681 1.01695 5.28648 1.40644 8.82538 -32.2454 7.31588 -15.7692 -35.7391 57.6202 -12.1615 -2.32792 0.562582 -23.727 10.4316 16.8401 -0.729541 1.59028e-015 -1.59028e-015 -1.19271e-015 1.59028e-015 1.59028e-015 -7.95139e-016 18.3647 -4.16444 -11.4823 32.0312 46.8977 25.2102 1.83821 0.142719 12.8803 -8.19753 7.21011 -2.94797 -3.18055e-015 3.18055e-015 3.97569e-015 3.18055e-015 0 7.95139e-016 -11.5448 28.6826 17.3812 
